<svg width="1698" height="512" viewBox="0 0 1698 512" fill="none" xmlns="http://www.w3.org/2000/svg">
<g clip-path="url(#clip0_1043_32)">
<path fill-rule="evenodd" clip-rule="evenodd" d="M1144.07 118.172C1089.76 118.172 1044.53 157.042 1034.69 208.477C1020.07 220.425 1010.15 243.679 1010.15 270.409C1010.15 304.944 1026.71 333.678 1048.57 339.719L1084.92 398.361C1112.21 442.394 1176.28 442.394 1203.57 398.361L1240 339.601C1261.65 333.31 1278 304.723 1278 270.409C1278 243.677 1268.08 220.422 1253.46 208.475C1243.61 157.041 1198.38 118.172 1144.07 118.172ZM1132.93 368.574H1133.59H1155.8H1155.89V368.574C1162.4 368.612 1167.66 372.554 1167.66 377.41C1167.66 382.266 1162.4 386.208 1155.89 386.246V386.246H1155.8H1133.59H1132.93V386.232C1126.69 385.976 1121.74 382.124 1121.74 377.41C1121.74 372.696 1126.69 368.844 1132.93 368.587V368.574ZM1199.99 211.203H1199.52H1089.56H1086.27V211.294C1055.36 212.999 1030.82 238.602 1030.82 269.936C1030.82 301.27 1055.36 326.873 1086.27 328.579V328.669H1089.56H1199.52H1199.99V328.667C1232.22 328.414 1258.26 302.216 1258.26 269.936C1258.26 237.656 1232.22 211.459 1199.99 211.205V211.203Z" fill="white"/>
<path d="M104.721 430.09C83.2932 430.09 64.63 426.461 48.7317 419.203C33.1791 411.945 21.0825 401.058 12.4421 386.542C4.14738 372.026 0 353.881 0 332.108V218.055C0 196.281 4.14738 178.136 12.4421 163.62C21.0825 149.104 33.1791 138.218 48.7317 130.96C64.63 123.702 83.2932 120.073 104.721 120.073C126.15 120.073 144.64 123.702 160.193 130.96C176.091 138.218 188.36 149.104 197.001 163.62C205.641 178.136 209.961 196.281 209.961 218.055V332.108C209.961 353.881 205.641 372.026 197.001 386.542C188.36 401.058 176.091 411.945 160.193 419.203C144.64 426.461 126.15 430.09 104.721 430.09ZM105.24 374.1C110.77 374.1 115.09 372.717 118.2 369.953C121.311 366.842 123.385 362.695 124.421 357.51C125.804 351.981 126.495 345.414 126.495 337.81V212.352C126.495 204.748 125.804 198.355 124.421 193.17C123.385 187.641 121.311 183.493 118.2 180.728C115.09 177.618 110.77 176.062 105.24 176.062C99.71 176.062 95.3898 177.618 92.2792 180.728C89.1687 183.493 86.9222 187.641 85.5397 193.17C84.1573 198.355 83.4661 204.748 83.4661 212.352V337.81C83.4661 345.414 84.1573 351.981 85.5397 357.51C86.9222 362.695 89.1687 366.842 92.2792 369.953C95.3898 372.717 99.71 374.1 105.24 374.1Z" fill="white"/>
<path d="M381.766 431.126C349.969 431.126 324.739 425.424 306.076 414.018C287.758 402.268 274.798 386.024 267.194 365.287C259.591 344.204 255.789 319.493 255.789 291.152V139.773C255.789 110.741 259.591 85.8569 267.194 65.12C274.798 44.0374 287.758 27.7935 306.076 16.3882C324.739 4.98292 349.969 -0.719727 381.766 -0.719727C412.871 -0.719727 437.064 4.4645 454.345 14.833C471.971 24.8558 484.413 39.026 491.671 57.3436C498.929 75.6612 502.558 96.7437 502.558 120.591V156.881H411.834V114.889C411.834 106.594 411.316 98.6446 410.279 91.0411C409.588 83.4376 407.168 77.2165 403.021 72.3779C398.874 67.1936 391.788 64.6015 381.766 64.6015C372.088 64.6015 364.831 67.1936 359.992 72.3779C355.499 77.5621 352.561 84.1288 351.179 92.0779C350.142 99.6815 349.623 107.803 349.623 116.444V313.963C349.623 323.294 350.315 331.935 351.697 339.884C353.425 347.488 356.536 353.709 361.029 358.547C365.867 363.04 372.78 365.287 381.766 365.287C391.443 365.287 398.355 362.867 402.503 358.029C406.65 352.845 409.242 346.278 410.279 338.329C411.316 330.38 411.834 322.258 411.834 313.963V269.897H502.558V306.187C502.558 330.034 498.929 351.462 491.671 370.471C484.759 389.134 472.49 403.996 454.863 415.055C437.583 425.769 413.217 431.126 381.766 431.126Z" fill="white"/>
<path d="M557.24 512V453.419C567.954 453.419 576.767 452.727 583.679 451.345C590.937 449.962 596.294 447.37 599.75 443.569C603.552 439.767 605.453 434.583 605.453 428.016C605.453 422.14 604.416 415.055 602.342 406.761C600.269 398.12 597.677 388.443 594.566 377.729L524.061 125.257H603.379L641.224 298.41L669.737 125.257H749.574L680.624 432.163C676.131 452.9 669.046 468.971 659.369 480.377C649.692 492.127 637.768 500.249 623.598 504.742C609.773 509.581 594.048 512 576.421 512H557.24Z" fill="white"/>
<path d="M930.111 430.09C919.051 430.09 907.992 427.67 896.932 422.832C886.218 417.647 875.849 410.735 865.827 402.095V424.905H781.324V4.98291H865.827V147.031C876.195 138.045 886.909 131.305 897.969 126.812C909.374 122.319 920.434 120.073 931.148 120.073C942.553 120.073 952.23 122.319 960.18 126.812C968.474 131.305 975.214 137.699 980.398 145.994C985.582 153.943 989.384 163.275 991.803 173.989C994.223 184.703 995.432 196.108 995.432 208.205V337.292C995.432 355.955 992.84 372.199 987.656 386.024C982.817 399.848 975.559 410.735 965.882 418.684C956.205 426.288 944.281 430.09 930.111 430.09ZM889.156 375.655C894.685 375.655 899.006 374.1 902.116 370.989C905.227 367.879 907.473 363.904 908.856 359.066C910.238 353.881 910.929 348.179 910.929 341.958V201.984C910.929 196.108 910.238 190.924 908.856 186.431C907.473 181.592 905.227 177.79 902.116 175.026C899.351 172.261 895.377 170.878 890.193 170.878C885.7 170.878 881.379 171.915 877.232 173.989C873.43 175.717 869.628 177.963 865.827 180.728V367.36C869.628 369.78 873.43 371.853 877.232 373.581C881.379 374.964 885.354 375.655 889.156 375.655Z" fill="white"/>
<path d="M1386.46 430.09C1360.19 430.09 1338.24 424.214 1320.62 412.463C1303.34 400.712 1289.17 381.531 1278.11 354.918L1335.65 329.516C1341.18 342.995 1347.57 353.709 1354.83 361.658C1362.44 369.261 1370.73 373.063 1379.72 373.063C1386.28 373.063 1391.12 371.681 1394.23 368.916C1397.69 366.151 1399.42 362.349 1399.42 357.51C1399.42 349.561 1396.31 342.303 1390.09 335.737C1384.21 329.17 1373.5 319.493 1357.94 306.705L1336.17 288.56C1320.27 275.081 1307.66 262.121 1298.32 249.678C1289.34 236.891 1284.85 221.165 1284.85 202.502C1284.85 186.258 1288.99 171.915 1297.29 159.473C1305.93 147.031 1317.33 137.354 1331.5 130.441C1345.67 123.529 1360.88 120.073 1377.13 120.073C1401.66 120.073 1422.23 126.812 1438.82 140.291C1455.41 153.77 1466.99 172.779 1473.55 197.318L1419.12 222.202C1417.04 215.635 1414.11 209.069 1410.3 202.502C1406.5 195.935 1401.84 190.405 1396.31 185.912C1391.12 181.419 1385.42 179.173 1379.2 179.173C1373.67 179.173 1369.18 180.728 1365.72 183.839C1362.61 186.949 1361.05 191.097 1361.05 196.281C1361.05 202.848 1364.68 209.933 1371.94 217.536C1379.54 225.14 1389.91 234.299 1403.05 245.013L1424.3 263.676C1432.94 270.934 1441.41 278.71 1449.7 287.005C1458 295.3 1464.74 304.458 1469.92 314.481C1475.45 324.504 1478.22 335.909 1478.22 348.697C1478.22 365.978 1473.9 380.839 1465.26 393.281C1456.62 405.378 1445.21 414.537 1431.04 420.758C1417.22 426.979 1402.36 430.09 1386.46 430.09Z" fill="white"/>
<path d="M1606.18 430.09C1579.91 430.09 1557.97 424.214 1540.34 412.463C1523.06 400.712 1508.89 381.531 1497.83 354.918L1555.37 329.516C1560.9 342.995 1567.3 353.709 1574.56 361.658C1582.16 369.261 1590.45 373.063 1599.44 373.063C1606.01 373.063 1610.84 371.681 1613.96 368.916C1617.41 366.151 1619.14 362.349 1619.14 357.51C1619.14 349.561 1616.03 342.303 1609.81 335.737C1603.93 329.17 1593.22 319.493 1577.67 306.705L1555.89 288.56C1539.99 275.081 1527.38 262.121 1518.05 249.678C1509.06 236.891 1504.57 221.165 1504.57 202.502C1504.57 186.258 1508.72 171.915 1517.01 159.473C1525.65 147.031 1537.06 137.354 1551.23 130.441C1565.4 123.529 1580.6 120.073 1596.85 120.073C1621.39 120.073 1641.95 126.812 1658.54 140.291C1675.13 153.77 1686.71 172.779 1693.27 197.318L1638.84 222.202C1636.77 215.635 1633.83 209.069 1630.03 202.502C1626.22 195.935 1621.56 190.405 1616.03 185.912C1610.84 181.419 1605.14 179.173 1598.92 179.173C1593.39 179.173 1588.9 180.728 1585.44 183.839C1582.33 186.949 1580.78 191.097 1580.78 196.281C1580.78 202.848 1584.41 209.933 1591.66 217.536C1599.27 225.14 1609.63 234.299 1622.77 245.013L1644.02 263.676C1652.66 270.934 1661.13 278.71 1669.43 287.005C1677.72 295.3 1684.46 304.458 1689.64 314.481C1695.17 324.504 1697.94 335.909 1697.94 348.697C1697.94 365.978 1693.62 380.839 1684.98 393.281C1676.34 405.378 1664.93 414.537 1650.76 420.758C1636.94 426.979 1622.08 430.09 1606.18 430.09Z" fill="white"/>
</g>
<defs>
<clipPath id="clip0_1043_32">
<rect width="1698" height="512" fill="white"/>
</clipPath>
</defs>
</svg>
