<svg width="512" height="512" viewBox="0 0 512 512" fill="none" xmlns="http://www.w3.org/2000/svg">
<path fill-rule="evenodd" clip-rule="evenodd" d="M255.484 0C166.781 0 92.9071 63.4929 76.8318 147.51C52.9521 167.026 36.748 205.011 36.748 248.673C36.748 305.084 63.7968 352.019 99.5011 361.888L158.869 457.677C203.447 529.603 308.088 529.602 352.666 457.676L412.153 361.694C447.519 351.419 474.223 304.724 474.223 248.673C474.223 205.008 458.017 167.02 434.134 147.506C418.058 63.4909 344.185 0 255.484 0ZM237.285 409.021H238.37H274.63H274.785V409.021C285.411 409.084 294 415.522 294 423.454C294 431.387 285.411 437.825 274.785 437.887V437.888H274.63H238.37H237.285V437.865C227.092 437.446 219 431.154 219 423.454C219 415.754 227.092 409.462 237.285 409.043V409.021ZM346.818 151.963H346.047H166.453H161.083V152.111C110.596 154.896 70.5156 196.718 70.5156 247.9C70.5156 299.083 110.596 340.905 161.083 343.69V343.838H166.453H346.047H346.818V343.835C399.448 343.421 441.985 300.628 441.985 247.9C441.985 195.173 399.448 152.38 346.818 151.966V151.963Z" fill="white"/>
</svg>
